<svg width="33" height="32" viewBox="0 0 33 32" fill="none" xmlns="http://www.w3.org/2000/svg">
<g id="Icon/facebook">
<path id="Vector" d="M16.9102 3C14.339 3 11.8256 3.76244 9.68775 5.1909C7.54991 6.61935 5.88367 8.64968 4.89973 11.0251C3.91579 13.4006 3.65835 16.0144 4.15995 18.5362C4.66156 21.0579 5.89969 23.3743 7.71777 25.1924C9.53586 27.0105 11.8522 28.2486 14.374 28.7502C16.8957 29.2518 19.5096 28.9944 21.885 28.0104C24.2605 27.0265 26.2908 25.3603 27.7193 23.2224C29.1477 21.0846 29.9102 18.5712 29.9102 16C29.9065 12.5533 28.5357 9.24882 26.0985 6.81163C23.6613 4.37445 20.3569 3.00364 16.9102 3ZM17.9102 26.9538V19H20.9102C21.1754 19 21.4297 18.8946 21.6173 18.7071C21.8048 18.5196 21.9102 18.2652 21.9102 18C21.9102 17.7348 21.8048 17.4804 21.6173 17.2929C21.4297 17.1054 21.1754 17 20.9102 17H17.9102V14C17.9102 13.4696 18.1209 12.9609 18.4959 12.5858C18.871 12.2107 19.3797 12 19.9102 12H21.9102C22.1754 12 22.4297 11.8946 22.6173 11.7071C22.8048 11.5196 22.9102 11.2652 22.9102 11C22.9102 10.7348 22.8048 10.4804 22.6173 10.2929C22.4297 10.1054 22.1754 10 21.9102 10H19.9102C18.8493 10 17.8319 10.4214 17.0817 11.1716C16.3316 11.9217 15.9102 12.9391 15.9102 14V17H12.9102C12.6449 17 12.3906 17.1054 12.2031 17.2929C12.0155 17.4804 11.9102 17.7348 11.9102 18C11.9102 18.2652 12.0155 18.5196 12.2031 18.7071C12.3906 18.8946 12.6449 19 12.9102 19H15.9102V26.9538C13.0912 26.6964 10.4799 25.3622 8.61946 23.2287C6.75905 21.0952 5.79275 18.3266 5.92156 15.4988C6.05036 12.671 7.26435 10.0017 9.31101 8.04613C11.3577 6.09057 14.0794 4.9993 16.9102 4.9993C19.7409 4.9993 22.4627 6.09057 24.5093 8.04613C26.556 10.0017 27.77 12.671 27.8988 15.4988C28.0276 18.3266 27.0613 21.0952 25.2009 23.2287C23.3405 25.3622 20.7292 26.6964 17.9102 26.9538Z" fill="white"/>
</g>
</svg>
