<svg width="33" height="32" viewBox="0 0 33 32" fill="none" xmlns="http://www.w3.org/2000/svg">
<g id="Icon/instagram">
<path id="Vector" d="M16.9102 10C15.7235 10 14.5634 10.3519 13.5767 11.0112C12.59 11.6705 11.821 12.6075 11.3669 13.7039C10.9128 14.8003 10.7939 16.0067 11.0254 17.1705C11.257 18.3344 11.8284 19.4035 12.6675 20.2426C13.5066 21.0818 14.5757 21.6532 15.7396 21.8847C16.9035 22.1162 18.1099 21.9974 19.2063 21.5433C20.3026 21.0892 21.2397 20.3201 21.899 19.3334C22.5583 18.3467 22.9102 17.1867 22.9102 16C22.9085 14.4092 22.2758 12.884 21.151 11.7592C20.0261 10.6343 18.5009 10.0017 16.9102 10ZM16.9102 20C16.119 20 15.3457 19.7654 14.6879 19.3259C14.0301 18.8864 13.5174 18.2616 13.2146 17.5307C12.9119 16.7998 12.8327 15.9956 12.987 15.2196C13.1414 14.4437 13.5223 13.731 14.0817 13.1716C14.6411 12.6122 15.3539 12.2312 16.1298 12.0769C16.9057 11.9225 17.71 12.0017 18.4409 12.3045C19.1718 12.6072 19.7965 13.1199 20.236 13.7777C20.6756 14.4355 20.9102 15.2089 20.9102 16C20.9102 17.0609 20.4887 18.0783 19.7386 18.8284C18.9884 19.5786 17.971 20 16.9102 20ZM22.9102 3H10.9102C9.05425 3.00199 7.27493 3.74012 5.9626 5.05245C4.65028 6.36477 3.91214 8.14409 3.91016 10V22C3.91214 23.8559 4.65028 25.6352 5.9626 26.9476C7.27493 28.2599 9.05425 28.998 10.9102 29H22.9102C24.7661 28.998 26.5454 28.2599 27.8577 26.9476C29.17 25.6352 29.9082 23.8559 29.9102 22V10C29.9082 8.14409 29.17 6.36477 27.8577 5.05245C26.5454 3.74012 24.7661 3.00199 22.9102 3ZM27.9102 22C27.9102 23.3261 27.3834 24.5979 26.4457 25.5355C25.508 26.4732 24.2362 27 22.9102 27H10.9102C9.58407 27 8.3123 26.4732 7.37462 25.5355C6.43694 24.5979 5.91016 23.3261 5.91016 22V10C5.91016 8.67392 6.43694 7.40215 7.37462 6.46447C8.3123 5.52678 9.58407 5 10.9102 5H22.9102C24.2362 5 25.508 5.52678 26.4457 6.46447C27.3834 7.40215 27.9102 8.67392 27.9102 10V22ZM24.9102 9.5C24.9102 9.79667 24.8222 10.0867 24.6574 10.3334C24.4925 10.58 24.2583 10.7723 23.9842 10.8858C23.7101 10.9994 23.4085 11.0291 23.1175 10.9712C22.8265 10.9133 22.5593 10.7704 22.3495 10.5607C22.1397 10.3509 21.9969 10.0836 21.939 9.79264C21.8811 9.50166 21.9108 9.20006 22.0243 8.92597C22.1379 8.65189 22.3301 8.41762 22.5768 8.2528C22.8235 8.08797 23.1135 8 23.4102 8C23.808 8 24.1895 8.15804 24.4708 8.43934C24.7521 8.72064 24.9102 9.10218 24.9102 9.5Z" fill="white"/>
</g>
</svg>
