<svg width="28" height="28" viewBox="0 0 28 28" fill="none" xmlns="http://www.w3.org/2000/svg">
<g id="Group">
<path id="Vector" d="M20.7591 15.5073V20.4366H17.9018V15.8366C17.9018 14.682 17.4884 13.894 16.4538 13.894C15.6644 13.894 15.1938 14.4246 14.9871 14.9393C14.9124 15.1233 14.8924 15.3793 14.8924 15.6353V20.4366H12.0338C12.0338 20.4366 12.0724 12.6473 12.0338 11.8406H14.8924V13.058L14.8738 13.086H14.8924V13.058C15.2724 12.4713 15.9498 11.638 17.4684 11.638C19.3484 11.638 20.7591 12.8673 20.7591 15.5073ZM9.04311 7.69531C8.06578 7.69531 7.42578 8.33798 7.42578 9.18065C7.42578 10.0073 8.04711 10.6673 9.00578 10.6673H9.02445C10.0218 10.6673 10.6418 10.006 10.6418 9.18065C10.6231 8.33798 10.0218 7.69531 9.04311 7.69531ZM7.59511 20.4366H10.4538V11.8406H7.59511V20.4366Z" fill="white"/>
<path id="Vector_2" d="M14.0911 24.667C16.9201 24.667 19.6332 23.5432 21.6336 21.5428C23.634 19.5424 24.7578 16.8293 24.7578 14.0003C24.7578 11.1713 23.634 8.45824 21.6336 6.45785C19.6332 4.45747 16.9201 3.33366 14.0911 3.33366C11.2622 3.33366 8.54906 4.45747 6.54867 6.45785C4.54829 8.45824 3.42448 11.1713 3.42448 14.0003C3.42448 16.8293 4.54829 19.5424 6.54867 21.5428C8.54906 23.5432 11.2622 24.667 14.0911 24.667ZM14.0911 27.3337C6.72715 27.3337 0.757812 21.3643 0.757812 14.0003C0.757812 6.63633 6.72715 0.666992 14.0911 0.666992C21.4551 0.666992 27.4245 6.63633 27.4245 14.0003C27.4245 21.3643 21.4551 27.3337 14.0911 27.3337Z" fill="white"/>
</g>
</svg>
