<svg width="27" height="32" viewBox="0 0 27 32" fill="none" xmlns="http://www.w3.org/2000/svg">
<g id="Icon/youtube" clip-path="url(#clip0_574_1516)">
<path id="Vector" d="M22.2216 22.2292H20.5823V21.2456C20.5823 20.721 20.8446 20.4587 21.3692 20.4587H21.4347C21.9593 20.4587 22.2216 20.721 22.2216 21.2456V22.2292ZM15.9921 20.1309C15.4675 20.1309 15.2052 20.3494 15.2052 20.7866V25.4423C15.2052 25.8795 15.4675 26.0981 15.9921 26.0981C16.5167 26.0981 16.779 25.8795 16.779 25.4423V20.7866C16.779 20.3494 16.5167 20.1309 15.9921 20.1309ZM26.0905 17.5079V26.4259C26.0905 27.5188 25.6861 28.4369 24.8774 29.18C24.0686 29.9232 23.0959 30.2948 21.9593 30.2948H5.0413C3.90469 30.2948 2.93201 29.9232 2.12327 29.18C1.31453 28.4369 0.910156 27.5188 0.910156 26.4259V17.5079C0.910156 16.4587 1.31453 15.5516 2.12327 14.7866C2.93201 14.0216 3.90469 13.6391 5.0413 13.6391H21.9593C23.0959 13.6391 24.0686 14.0216 24.8774 14.7866C25.6861 15.5516 26.0905 16.4587 26.0905 17.5079ZM6.15606 27.4095V18.0325H8.25442V16.6555L2.68065 16.5899V17.9669H4.38557V27.4095H6.15606ZM12.4511 19.4095H10.6806V25.6391C10.5932 25.8576 10.4402 25.9997 10.2216 26.0653C10.0031 26.1309 9.82819 26.0106 9.69704 25.7046V24.4587L9.63147 19.4095H7.92655V25.9669C8.01398 26.7101 8.16699 27.1473 8.38557 27.2784C8.77901 27.5407 9.27081 27.5516 9.86098 27.3112C10.4511 27.0708 10.8555 26.7538 11.0741 26.3604V27.4095H12.4511V19.4095ZM18.0249 25.18V20.9833C18.0249 20.1527 17.7626 19.5844 17.238 19.2784C16.7134 18.9724 16.0577 19.1254 15.2708 19.7374V16.6555H13.5003V27.344H14.9429L15.0741 26.6227C15.9921 27.4095 16.7244 27.6281 17.2708 27.2784C17.8173 26.9287 18.0686 26.2292 18.0249 25.18ZM23.5331 24.5899H22.2216V25.5079C22.2216 25.9888 21.9812 26.2292 21.5003 26.2292H21.238C20.7572 26.2292 20.5167 25.9888 20.5167 25.5079V23.6063H23.5331V22.4915C23.5331 21.3549 23.5112 20.6336 23.4675 20.3276C23.3364 19.6281 22.8664 19.191 22.0577 19.0161C21.249 18.8412 20.5823 18.9505 20.0577 19.344C19.708 19.65 19.4675 19.9779 19.3364 20.3276C19.2052 20.7647 19.1397 21.3549 19.1397 22.0981V24.5899C19.1397 26.2074 19.7517 27.1473 20.9757 27.4095C22.0249 27.6281 22.7899 27.2784 23.2708 26.3604C23.5768 25.8795 23.6643 25.2893 23.5331 24.5899ZM16.779 11.0817C16.8664 11.3003 17.0194 11.4751 17.238 11.6063C17.4129 11.7374 17.6533 11.803 17.9593 11.803C18.2216 11.803 18.4402 11.7374 18.6151 11.6063C18.7899 11.4751 18.9429 11.2784 19.0741 11.0161V11.6718H21.0413V3.34397H19.4675V9.83578C19.4675 10.2729 19.249 10.4915 18.8118 10.4915C18.4184 10.4915 18.2216 10.2729 18.2216 9.83578V3.34397H16.5823V8.98332C16.5823 9.7702 16.6041 10.2511 16.6479 10.4259C16.6479 10.6008 16.6916 10.8194 16.779 11.0817ZM10.8774 6.42594C10.8774 5.63906 10.9429 5.00518 11.0741 4.5243C11.2052 4.13086 11.4457 3.78113 11.7954 3.47512C12.1451 3.21283 12.5823 3.08168 13.1069 3.08168C13.5878 3.08168 13.9812 3.16911 14.2872 3.34397C14.5932 3.47512 14.8337 3.6937 15.0085 3.99971C15.1834 4.21829 15.3145 4.50244 15.402 4.85217C15.4457 5.07075 15.4675 5.52977 15.4675 6.22922V8.32758C15.4675 9.2019 15.4457 9.7702 15.402 10.0325C15.3582 10.3385 15.2271 10.6664 15.0085 11.0161C14.8774 11.2347 14.6369 11.4751 14.2872 11.7374C13.9375 11.8686 13.5878 11.9341 13.238 11.9341C12.8009 11.9341 12.4074 11.8686 12.0577 11.7374C11.7517 11.6063 11.5112 11.4095 11.3364 11.1473C11.1615 10.7975 11.0522 10.4915 11.0085 10.2292C10.9211 9.79206 10.8774 9.24561 10.8774 8.58988V6.42594ZM12.3856 9.70463C12.3856 9.92321 12.4621 10.1199 12.6151 10.2948C12.7681 10.4697 12.9539 10.5571 13.1725 10.5571C13.697 10.5571 13.9593 10.2729 13.9593 9.70463V5.31119C13.9593 4.74288 13.697 4.45873 13.1725 4.45873C12.6479 4.45873 12.3856 4.74288 12.3856 5.31119V9.70463ZM7.00852 11.9341H8.84458V5.57348L11.0085 0.130859H9.0413L7.86098 4.19643L6.68065 0.130859H4.71344L7.00852 5.57348V11.9341Z" fill="white"/>
</g>
<defs>
<clipPath id="clip0_574_1516">
<rect width="25.1803" height="32" fill="white" transform="translate(0.910156)"/>
</clipPath>
</defs>
</svg>
