<?xml version="1.0" standalone="no"?>
<!DOCTYPE svg PUBLIC "-//W3C//DTD SVG 20010904//EN"
 "http://www.w3.org/TR/2001/REC-SVG-20010904/DTD/svg10.dtd">
<svg version="1.0" xmlns="http://www.w3.org/2000/svg"
 width="512.000000pt" height="512.000000pt" viewBox="0 0 512.000000 512.000000"
 preserveAspectRatio="xMidYMid meet">
<metadata>
Created by potrace 1.14, written by Peter Selinger 2001-2017
</metadata>
<g transform="translate(0.000000,512.000000) scale(0.100000,-0.100000)"
fill="#000000" stroke="none">
<path d="M2336 4983 c-4 -4 -16 -9 -27 -9 -10 -1 -20 -3 -21 -4 -2 -1 -19 -3
-38 -5 -19 -1 -46 -7 -60 -13 -14 -5 -28 -8 -32 -5 -5 2 -8 -1 -8 -6 0 -6 -8
-11 -18 -11 -10 0 -23 -5 -30 -12 -7 -7 -12 -9 -12 -5 0 4 -17 -2 -37 -13 -21
-11 -43 -20 -50 -20 -7 0 -13 -5 -13 -12 0 -6 -3 -9 -6 -5 -4 3 -26 -7 -50
-24 -24 -16 -44 -26 -44 -22 0 4 -5 0 -11 -9 -5 -10 -16 -18 -23 -18 -8 0 -17
-7 -20 -16 -4 -9 -9 -14 -12 -11 -3 3 -16 -5 -29 -19 -12 -13 -28 -24 -35 -24
-7 0 -10 -3 -7 -7 4 -3 -8 -17 -25 -30 -18 -12 -29 -23 -25 -23 4 0 -8 -14
-26 -31 -17 -17 -32 -34 -32 -38 0 -3 -10 -17 -22 -30 -13 -14 -25 -33 -29
-43 -3 -10 -10 -18 -15 -18 -5 0 -9 -7 -9 -15 0 -8 -5 -15 -12 -15 -6 0 -9 -3
-5 -6 3 -3 -5 -24 -19 -45 -13 -21 -21 -39 -18 -39 3 0 0 -10 -8 -22 -18 -28
-43 -99 -40 -112 2 -5 -1 -12 -6 -15 -11 -6 -20 -46 -28 -126 -3 -27 -11 -56
-16 -62 -6 -7 -6 -13 -1 -13 5 0 7 -21 6 -47 -4 -54 -4 -47 -1 -130 2 -35 6
-63 10 -63 3 0 4 -10 0 -22 -3 -14 -1 -19 6 -14 8 5 10 2 6 -8 -3 -9 4 -48 17
-88 12 -40 22 -76 21 -80 -1 -5 3 -8 10 -8 6 0 9 -3 5 -6 -3 -4 0 -19 9 -35 8
-16 12 -29 9 -29 -3 0 3 -10 15 -22 11 -12 20 -29 20 -38 0 -9 9 -25 20 -35
11 -10 20 -24 20 -32 0 -7 5 -13 10 -13 6 0 10 -4 10 -10 0 -22 240 -266 254
-257 3 1 16 -8 30 -20 15 -13 31 -23 36 -23 13 0 53 -22 62 -35 5 -7 8 -7 8 0
0 6 7 1 15 -9 8 -11 15 -16 15 -12 0 5 7 3 15 -4 8 -7 15 -9 15 -5 0 4 11 0
25 -9 14 -9 25 -14 25 -11 0 3 9 1 21 -5 24 -13 52 -21 93 -25 16 -2 31 -7 35
-12 3 -4 28 -8 54 -8 27 0 50 -3 52 -6 4 -5 215 -2 247 4 10 2 20 6 24 10 4 3
15 2 25 -4 14 -7 21 -6 24 3 3 8 18 15 33 16 15 1 29 7 30 12 2 6 8 8 12 5 9
-6 141 44 150 57 3 3 18 10 33 13 16 4 31 14 34 21 3 8 9 12 13 9 4 -2 19 5
32 18 14 12 32 23 39 25 8 2 21 11 29 20 15 18 22 22 40 22 6 0 9 3 8 8 -2 4
17 25 42 47 46 41 62 60 60 71 -1 4 4 10 12 15 7 5 13 28 14 56 0 40 -4 52
-28 75 -34 32 -79 44 -107 28 -12 -6 -21 -8 -21 -6 0 3 -24 -18 -54 -47 -74
-71 -115 -107 -124 -107 -4 -1 -17 -10 -30 -20 -12 -11 -26 -20 -32 -20 -5 0
-19 -10 -31 -22 -12 -13 -19 -17 -15 -10 4 6 2 12 -3 12 -6 0 -11 -4 -11 -10
0 -5 -18 -14 -40 -20 -22 -6 -40 -15 -40 -21 0 -6 -4 -8 -9 -5 -5 4 -22 2 -36
-4 -37 -14 -88 -22 -157 -23 -32 -1 -58 -6 -58 -10 0 -5 -4 -6 -10 -2 -5 3
-40 8 -77 10 -101 6 -213 31 -213 47 0 4 -4 7 -8 6 -10 -4 -116 45 -120 55 -2
4 -10 7 -17 7 -7 0 -16 7 -19 16 -4 9 -9 14 -12 11 -7 -6 -15 0 -74 56 -22 20
-45 37 -52 37 -6 0 -9 3 -5 6 3 3 -4 16 -16 29 -31 31 -57 64 -57 71 0 8 -44
69 -52 72 -5 2 -8 9 -8 15 0 7 -9 29 -20 50 -11 20 -20 46 -20 56 0 11 -4 22
-9 26 -6 3 -10 13 -10 23 0 17 -8 57 -11 57 -1 0 -4 14 -6 30 -7 45 -10 235
-4 235 3 0 6 17 7 38 4 54 5 62 14 62 5 0 5 7 2 17 -5 12 -3 14 7 8 9 -5 11
-4 6 4 -4 6 -2 28 5 49 7 20 12 40 11 45 -1 4 3 7 10 7 6 0 9 3 5 6 -3 3 7 27
22 52 15 26 34 58 42 72 8 14 24 35 37 47 12 12 22 27 22 33 0 5 5 10 10 10 6
0 15 11 22 25 6 13 14 23 17 20 4 -2 25 12 46 32 69 63 224 151 239 135 3 -3
6 1 6 8 0 7 3 10 7 7 3 -4 11 -3 17 2 11 9 62 21 99 24 9 1 17 6 17 12 0 5 5
3 10 -5 5 -8 10 -10 10 -4 0 6 10 10 23 10 12 -1 30 2 40 6 10 5 17 5 17 -1 0
-7 28 -8 38 -1 3 3 41 3 45 0 1 -1 20 -3 42 -5 22 -2 54 -6 70 -10 17 -3 37
-7 45 -7 8 -1 18 -6 22 -12 5 -8 8 -7 8 1 0 9 8 8 28 -3 35 -19 85 -38 95 -36
4 1 7 -2 7 -8 0 -5 9 -10 19 -10 11 0 21 -4 23 -8 2 -4 21 -19 43 -32 50 -31
52 -32 131 -108 76 -72 105 -87 145 -73 15 5 29 7 32 5 2 -3 15 10 29 28 25
35 37 101 19 113 -6 3 -9 10 -6 15 3 5 -4 14 -16 20 -11 7 -18 14 -16 17 3 2
-8 17 -25 31 -16 15 -40 37 -53 50 -13 12 -29 22 -34 22 -6 0 -15 9 -21 20 -6
11 -17 20 -24 20 -8 0 -19 7 -26 15 -7 8 -16 12 -21 9 -5 -3 -9 3 -9 12 0 10
-3 14 -6 11 -4 -4 -19 2 -34 13 -15 11 -30 17 -34 13 -3 -3 -6 -1 -6 6 0 7 -4
9 -10 6 -5 -3 -10 -1 -10 5 0 6 -4 8 -10 5 -5 -3 -10 -1 -10 5 0 6 -4 8 -10 5
-5 -3 -10 -2 -10 2 0 5 -10 9 -22 10 -11 1 -25 8 -29 15 -5 7 -9 9 -9 4 0 -5
-7 -3 -15 4 -8 7 -15 10 -15 6 0 -3 -15 0 -32 7 -18 8 -38 12 -45 10 -6 -2
-14 0 -17 6 -4 6 -14 7 -23 4 -9 -4 -14 -2 -10 3 3 6 -7 9 -24 8 -16 -1 -32 2
-35 7 -3 6 -11 6 -17 1 -11 -8 -25 -8 -44 -2 -20 6 -140 5 -160 -2 -12 -4 -23
-3 -25 3 -2 6 -7 7 -12 2z"/>
<path d="M3296 3753 c-4 -4 -26 -8 -49 -8 -23 -1 -48 -4 -55 -9 -7 -4 -12 -2
-12 4 0 8 -6 7 -21 -1 -12 -6 -30 -9 -40 -6 -10 3 -19 1 -19 -3 0 -8 -86 -26
-102 -22 -5 1 -8 -2 -8 -7 0 -8 -56 -25 -72 -22 -5 0 -8 -3 -8 -8 0 -5 -16
-15 -35 -21 -19 -6 -35 -15 -35 -19 0 -4 -6 -8 -12 -8 -18 0 -88 -43 -88 -54
0 -5 -4 -8 -9 -7 -10 3 -65 -40 -121 -94 -21 -20 -41 -34 -44 -31 -3 4 -6 -1
-6 -10 0 -9 -4 -17 -8 -17 -4 0 -15 -13 -24 -28 -18 -31 -22 -112 -5 -112 6 0
8 -3 4 -6 -7 -8 17 -34 32 -34 6 0 11 -5 11 -11 0 -6 19 -9 48 -8 42 2 52 8
100 56 28 29 52 51 52 48 0 -3 6 0 14 7 8 7 12 16 9 21 -2 4 4 7 14 7 10 0 25
9 33 19 7 11 17 18 22 15 4 -3 8 0 8 5 0 6 6 11 14 11 8 0 17 7 20 16 3 8 14
14 23 12 10 -1 30 6 45 16 15 10 35 19 45 21 10 2 20 4 23 5 3 1 8 2 13 1 4 0
7 4 7 11 0 6 3 9 6 5 4 -3 20 1 36 9 23 12 28 12 23 2 -6 -10 -5 -10 5 -1 7 6
19 9 26 6 8 -3 14 -1 14 4 0 5 16 9 35 8 19 -1 35 2 35 7 0 5 9 4 20 -2 11 -6
20 -7 20 -2 0 4 16 8 35 8 19 0 35 -4 35 -9 0 -5 6 -5 13 1 19 16 21 16 46 3
19 -10 22 -10 16 0 -6 8 -4 10 6 3 16 -10 33 -14 72 -16 15 0 27 -4 27 -7 0
-4 8 -8 18 -9 31 -3 47 -8 67 -19 11 -6 22 -12 25 -12 41 -11 50 -15 50 -22 0
-5 3 -8 8 -7 13 4 92 -42 92 -54 0 -6 3 -9 6 -5 6 6 44 -24 82 -65 14 -15 29
-25 35 -21 6 3 7 1 3 -5 -4 -6 2 -17 14 -24 11 -7 20 -19 20 -26 0 -7 14 -26
30 -42 17 -16 30 -36 30 -45 0 -8 4 -15 8 -15 5 0 14 -16 22 -35 8 -19 18 -35
24 -35 5 0 6 -3 3 -7 -4 -3 -2 -12 4 -20 6 -7 8 -13 5 -13 -4 0 0 -10 8 -21 8
-12 12 -28 9 -35 -3 -8 -1 -14 4 -14 5 0 10 -10 11 -22 3 -34 7 -52 13 -63 3
-5 5 -17 4 -25 0 -8 4 -18 10 -22 6 -5 5 -8 -3 -8 -7 0 -10 -5 -6 -11 11 -19
11 -129 0 -129 -6 0 -4 -5 4 -10 13 -9 13 -10 0 -10 -13 0 -13 -1 0 -10 8 -5
10 -10 5 -10 -6 0 -11 -12 -11 -27 -2 -42 -15 -107 -24 -118 -4 -5 -10 -27
-14 -47 -4 -21 -11 -38 -17 -38 -6 0 -8 -4 -5 -9 9 -14 -82 -169 -126 -213
-10 -10 -18 -23 -18 -30 0 -6 -3 -8 -6 -5 -4 4 -24 -12 -45 -34 -22 -23 -39
-39 -39 -36 0 3 -12 -5 -27 -19 -14 -13 -28 -22 -30 -20 -2 2 -16 -7 -30 -20
-14 -13 -29 -21 -34 -18 -5 3 -9 1 -9 -3 0 -10 -81 -48 -94 -44 -5 1 -12 -2
-15 -8 -4 -5 -20 -12 -36 -15 -17 -2 -30 -5 -30 -6 0 -1 -7 -3 -15 -5 -8 -2
-28 -6 -45 -10 -39 -9 -255 -14 -255 -6 0 3 -21 7 -46 8 -26 2 -53 8 -60 14
-8 6 -14 8 -14 4 0 -4 -6 -3 -12 2 -7 5 -20 9 -28 8 -8 0 -21 5 -28 12 -8 7
-18 11 -23 8 -5 -4 -9 -1 -9 5 0 7 -7 10 -15 6 -8 -3 -19 2 -24 12 -6 9 -11
14 -11 9 0 -4 -30 14 -67 40 -73 50 -71 48 -153 127 -51 49 -120 81 -120 56 0
-5 -6 -7 -13 -4 -7 2 -22 -4 -34 -15 -11 -11 -23 -17 -26 -15 -7 7 -20 -55
-19 -91 0 -16 6 -31 11 -33 6 -2 11 -8 11 -13 0 -11 115 -129 125 -129 4 0 13
-6 20 -12 27 -25 40 -34 73 -53 17 -11 32 -23 32 -28 0 -4 4 -6 8 -3 5 3 19
-4 30 -15 12 -11 22 -17 22 -13 0 3 16 -3 36 -15 19 -12 42 -21 50 -21 8 0 14
-5 14 -11 0 -5 4 -8 8 -5 5 3 20 -1 35 -9 15 -8 27 -11 27 -8 0 3 6 1 13 -4 6
-6 19 -11 27 -11 8 0 29 -4 45 -7 17 -4 35 -8 40 -9 6 -1 15 -4 20 -7 18 -10
279 -7 299 3 14 7 17 7 11 -2 -5 -9 -3 -9 11 -2 11 5 27 8 37 7 9 -2 17 1 17
5 0 5 8 9 18 9 23 0 44 5 60 14 6 5 12 5 12 1 0 -3 8 0 17 7 11 9 14 10 9 2
-5 -9 1 -8 21 2 15 7 69 33 118 56 84 39 163 92 228 153 15 14 32 26 38 26 5
0 8 3 7 8 -2 4 14 24 35 45 21 20 34 37 30 37 -4 0 3 7 15 16 12 8 22 22 22
30 0 8 4 14 10 14 5 0 16 16 24 35 8 19 20 35 26 35 6 0 9 4 5 9 -3 5 -1 12 5
16 5 3 10 15 10 26 0 11 5 17 10 14 6 -3 10 3 10 14 0 12 4 21 8 21 4 0 8 10
9 22 1 11 6 24 10 27 7 6 10 14 18 51 2 8 4 15 5 15 1 0 3 7 5 15 2 8 9 33 15
55 17 60 21 85 24 140 2 28 5 50 6 50 7 0 7 36 -1 40 -4 3 -4 16 1 30 7 17 6
25 -1 25 -8 0 -7 5 1 15 7 8 9 15 4 15 -5 0 -9 12 -10 28 -1 44 -14 120 -24
148 -6 14 -8 29 -5 34 3 5 1 10 -4 12 -6 1 -11 14 -13 28 -2 14 -9 35 -16 46
-6 12 -8 24 -5 28 3 3 1 6 -5 6 -7 0 -11 3 -10 8 4 14 -82 172 -94 172 -4 0
-8 5 -8 11 0 6 -6 16 -12 23 -7 7 -24 28 -38 46 -41 55 -150 159 -168 160 -4
1 -23 14 -42 30 -19 17 -40 30 -47 30 -7 0 -13 5 -13 11 0 5 -4 8 -9 5 -5 -3
-11 1 -15 9 -3 8 -13 15 -23 15 -10 0 -27 7 -37 15 -10 8 -23 12 -27 9 -5 -3
-9 0 -9 5 0 6 -8 11 -18 11 -10 0 -23 5 -30 12 -7 7 -12 8 -12 4 0 -5 -7 -3
-15 4 -8 7 -15 9 -15 6 0 -4 -10 -1 -22 6 -13 6 -30 13 -38 14 -8 1 -26 5 -40
8 -48 12 -106 18 -165 20 -33 0 -63 4 -66 9 -3 4 -9 4 -13 0z"/>
<path d="M1753 3733 c-8 -3 -9 -12 -3 -29 5 -13 6 -24 2 -24 -4 0 -1 -4 6 -8
7 -5 15 -19 17 -33 3 -13 9 -25 15 -27 6 -2 8 -8 4 -13 -3 -5 -1 -9 5 -9 5 0
13 -9 16 -20 4 -11 17 -31 30 -44 13 -13 21 -26 18 -30 -3 -3 6 -11 21 -17 14
-7 26 -16 26 -21 0 -4 5 -8 12 -8 21 0 98 -41 98 -53 0 -5 3 -7 6 -4 7 7 75
-43 110 -80 12 -13 24 -20 27 -16 4 3 7 -1 7 -10 0 -9 5 -17 10 -17 6 0 20 -9
31 -19 20 -18 70 -34 114 -36 39 -3 85 58 80 105 -1 14 -3 31 -4 38 -2 22
-180 192 -201 192 -6 0 -10 5 -10 10 0 6 -7 10 -15 10 -8 0 -15 5 -15 10 0 6
-6 10 -14 10 -7 0 -19 7 -26 15 -7 8 -16 12 -21 9 -5 -3 -9 -2 -9 3 0 7 -26
21 -110 57 -85 36 -203 67 -227 59z"/>
<path d="M1310 3712 c-14 -2 -29 -7 -35 -11 -5 -4 -30 -14 -55 -21 -25 -8 -47
-17 -50 -20 -3 -3 -29 -16 -57 -29 -29 -14 -53 -28 -53 -33 0 -5 -4 -6 -10 -3
-5 3 -10 1 -10 -6 0 -7 -3 -10 -6 -6 -3 3 -17 -6 -30 -20 -13 -14 -24 -22 -24
-18 0 5 -10 -1 -23 -13 -13 -12 -27 -19 -30 -15 -4 3 -7 -1 -7 -10 0 -10 -4
-17 -8 -17 -13 0 -92 -77 -85 -84 4 -3 -1 -6 -11 -6 -9 0 -15 -4 -11 -9 3 -6
-4 -15 -16 -21 -11 -7 -18 -14 -16 -17 3 -2 -2 -13 -11 -23 -29 -32 -42 -49
-44 -57 -1 -5 -14 -28 -30 -52 -15 -25 -28 -51 -28 -58 0 -7 -5 -13 -11 -13
-5 0 -8 -4 -4 -9 3 -5 -1 -16 -9 -24 -8 -8 -13 -17 -10 -20 3 -3 1 -13 -5 -24
-21 -39 -42 -112 -44 -150 -1 -13 -4 -23 -8 -23 -3 0 -5 -10 -5 -22 1 -13 -1
-33 -6 -45 -5 -16 -4 -23 5 -23 8 0 9 -3 1 -8 -7 -4 -10 -44 -9 -112 1 -58 3
-105 5 -105 1 0 3 -11 4 -25 2 -14 6 -43 10 -65 4 -22 7 -41 7 -43 -1 -1 5
-17 13 -36 8 -19 12 -37 8 -40 -3 -3 0 -6 7 -6 7 0 10 -4 7 -9 -3 -4 4 -25 14
-47 11 -21 20 -44 20 -51 0 -7 5 -13 11 -13 5 0 7 -4 4 -10 -3 -5 -1 -10 6
-10 7 0 9 -3 6 -6 -4 -4 2 -19 13 -34 11 -16 20 -33 20 -39 0 -6 5 -11 10 -11
6 0 10 -7 10 -15 0 -8 5 -15 10 -15 6 0 10 -6 10 -13 0 -7 9 -19 20 -27 11 -8
20 -18 20 -22 0 -10 127 -138 137 -138 5 0 21 -14 37 -30 16 -16 37 -32 47
-35 11 -4 19 -10 19 -15 0 -5 10 -12 23 -16 12 -3 34 -15 49 -25 14 -11 33
-19 41 -19 8 0 20 -6 27 -14 6 -8 18 -12 26 -9 8 3 14 0 14 -6 0 -6 8 -11 18
-11 10 0 22 -3 26 -7 3 -4 16 -8 28 -10 12 -2 25 -7 28 -11 3 -4 16 -8 30 -9
36 -4 85 -11 85 -13 0 -15 324 -15 343 0 2 3 6 4 54 13 21 5 40 8 43 7 3 0 19
7 35 15 16 8 32 15 35 15 23 1 65 14 65 22 0 5 4 7 9 3 5 -3 12 -1 16 5 4 6
11 8 16 5 5 -4 9 -2 9 3 0 9 52 35 65 33 3 -1 14 7 25 17 11 9 29 25 40 35 11
9 22 16 24 15 3 -2 17 8 33 22 15 14 33 25 38 25 6 1 9 6 8 12 -2 7 6 15 17
18 11 4 20 14 20 22 0 9 3 14 6 10 8 -8 34 18 34 33 0 6 4 9 9 6 12 -8 34 43
36 86 3 54 -46 111 -95 109 -58 -1 -70 -4 -70 -14 0 -6 -3 -7 -6 -4 -4 4 -20
-10 -35 -30 -16 -20 -29 -33 -29 -29 0 4 -14 -9 -31 -29 -17 -19 -37 -35 -45
-35 -8 0 -14 -4 -14 -9 0 -8 -28 -27 -105 -71 -38 -21 -128 -56 -137 -52 -5 1
-8 -2 -8 -7 0 -6 -9 -8 -20 -6 -11 2 -22 0 -25 -5 -3 -4 -16 -7 -30 -5 -14 1
-25 -1 -25 -5 0 -4 -19 -8 -43 -7 -24 0 -48 -3 -55 -6 -6 -4 -14 -3 -17 3 -4
7 -11 7 -18 2 -15 -12 -47 -12 -47 0 0 5 -9 4 -20 -2 -11 -6 -20 -7 -20 -2 0
4 -15 9 -32 10 -39 2 -83 9 -83 11 0 3 -12 6 -54 15 -13 3 -34 12 -47 21 -13
8 -24 13 -24 10 0 -3 -10 0 -22 7 -13 7 -26 12 -30 13 -4 0 -13 6 -19 12 -7 7
-19 13 -26 13 -7 0 -13 5 -13 10 0 6 -5 10 -10 10 -11 0 -15 3 -68 47 -51 42
-92 85 -92 95 0 5 -5 6 -10 3 -5 -3 -10 0 -10 7 0 7 -14 28 -31 46 -16 17 -27
32 -24 32 3 0 -3 10 -14 22 -11 11 -18 25 -15 30 3 4 2 8 -3 8 -4 0 -13 12
-20 28 -41 93 -53 125 -57 150 -2 15 -5 27 -6 27 -4 0 -10 48 -11 78 0 15 -5
27 -11 27 -7 0 -7 4 0 13 7 8 7 18 2 27 -5 8 -6 19 -3 24 10 15 10 56 0 56 -4
0 -5 5 -1 12 4 7 9 24 10 38 3 54 16 116 29 143 10 20 10 27 2 27 -8 0 -8 3 1
9 7 4 15 14 16 22 5 26 36 88 46 94 6 4 8 10 6 14 -3 4 3 17 12 27 10 10 30
39 45 64 15 25 27 41 27 37 0 -5 12 6 28 24 34 41 72 80 72 73 0 -2 13 8 30
22 34 31 55 44 123 75 26 13 47 26 47 30 0 7 68 24 83 21 4 -1 7 3 7 9 0 6 6
9 14 6 8 -3 17 -3 21 1 4 4 12 7 18 7 17 0 16 34 -1 68 -7 16 -11 31 -8 35 3
3 1 11 -4 17 -6 7 -11 24 -12 39 -1 14 -6 26 -10 26 -4 0 -7 5 -5 11 2 13 -26
18 -63 11z"/>
<path d="M5110 2400 c-8 -26 -7 -41 2 -32 6 6 8 16 5 24 -3 7 -6 11 -7 8z"/>
<path d="M1611 1535 c-1 -6 -120 -10 -338 -9 -236 1 -342 -2 -352 -10 -12 -9
-13 -8 -7 2 6 10 1 10 -22 -2 -32 -17 -59 -71 -40 -82 6 -4 5 -9 -3 -15 -10
-6 -11 -9 -1 -9 6 0 12 -6 12 -14 0 -28 72 -41 190 -33 25 1 50 -1 57 -6 6 -4
14 -3 18 3 3 6 11 7 17 4 6 -4 34 -6 62 -5 28 1 60 1 71 1 24 -1 29 -1 83 3
23 2 42 -1 42 -6 0 -4 5 -5 12 -1 14 9 78 12 78 4 0 -3 15 -4 33 -3 17 1 53 4
79 6 26 2 53 0 60 -4 6 -4 19 -4 28 1 9 5 22 5 30 0 7 -4 24 -4 37 1 15 5 23
5 23 -2 0 -6 5 -7 12 -3 17 10 108 11 108 1 0 -4 5 -5 11 -2 14 9 59 14 59 6
0 -4 17 -5 38 -3 31 3 71 3 147 2 8 0 21 0 28 0 6 1 27 -1 45 -3 17 -2 32 0
32 3 0 5 84 4 125 -1 6 -1 22 1 38 4 15 3 27 3 27 -1 0 -4 11 -7 25 -7 14 0
25 2 25 5 0 8 124 5 138 -4 6 -4 12 -4 12 1 0 4 33 7 72 5 95 -3 82 -3 171 0
42 2 77 -1 77 -5 0 -5 5 -5 11 -1 15 9 132 9 147 0 7 -4 12 -4 12 1 0 4 36 8
80 8 44 0 80 -4 80 -8 0 -5 5 -5 12 -1 18 11 111 11 126 1 6 -5 12 -6 12 -1 0
5 36 9 80 9 44 0 80 -4 80 -8 0 -5 5 -5 11 -1 7 4 37 6 68 5 69 -1 84 -1 143
0 25 1 51 -2 57 -6 6 -3 11 -2 11 3 0 10 42 8 59 -3 6 -3 11 -3 11 2 0 4 12 9
26 9 33 2 80 44 62 56 -10 6 -10 8 0 8 6 0 12 9 12 20 0 11 -4 20 -10 20 -5 0
-10 9 -10 20 0 11 -7 20 -15 20 -8 0 -15 4 -15 8 0 5 -540 8 -1200 8 -791 -1
-1201 2 -1204 9 -3 7 -5 7 -5 0z"/>
<path d="M964 1222 c4 -6 -2 -11 -11 -11 -39 -1 -53 -5 -53 -13 0 -5 -4 -7 -9
-4 -5 3 -14 -1 -21 -9 -7 -8 -16 -12 -21 -9 -5 3 -9 0 -9 -6 0 -6 -4 -8 -10
-5 -5 3 -10 1 -10 -5 0 -6 -11 -21 -25 -34 -13 -13 -26 -32 -28 -42 -1 -10 -7
-26 -12 -34 -15 -24 -8 -128 11 -168 19 -41 88 -115 98 -105 3 4 6 1 6 -5 0
-7 3 -11 8 -11 4 1 9 0 12 -1 12 -4 48 -12 80 -17 77 -12 127 -3 201 35 38 20
61 26 72 21 17 -10 33 16 16 26 -5 4 -7 11 -4 16 4 5 -1 9 -10 9 -9 0 -13 5
-10 10 3 6 2 10 -4 10 -6 0 -13 11 -17 24 -4 17 -11 22 -25 19 -10 -3 -19 -11
-19 -17 0 -6 -8 -18 -17 -27 -16 -13 -22 -16 -38 -20 -3 -1 -9 -3 -15 -4 -5
-1 -11 -4 -12 -5 -8 -7 -118 -5 -118 2 0 4 -8 8 -19 8 -19 0 -80 55 -82 74 -8
77 2 136 24 136 6 0 7 3 4 6 -9 9 41 47 52 39 5 -3 12 -1 16 5 4 6 11 8 16 5
5 -4 9 -2 9 3 0 7 44 9 60 2 3 -1 9 -2 13 -1 14 2 87 -22 87 -29 0 -3 9 -16
21 -29 l21 -22 27 28 c16 15 26 32 23 36 -2 5 4 14 14 21 17 13 17 14 -3 24
-11 6 -23 8 -27 5 -3 -3 -6 0 -6 7 0 7 -3 10 -6 7 -4 -3 -16 -1 -28 5 -11 7
-24 11 -28 10 -5 -1 -8 3 -8 10 0 6 -3 8 -7 5 -3 -4 -17 0 -30 8 -14 9 -23 11
-23 5 0 -7 -5 -8 -12 -3 -7 4 -21 6 -30 5 -10 -2 -18 2 -18 9 0 9 -3 9 -14 0
-11 -10 -20 -10 -37 -1 -13 7 -19 8 -15 2z"/>
<path d="M3016 1221 c-3 -4 -45 -8 -93 -7 -49 1 -94 -2 -100 -7 -7 -5 -13 -6
-13 -1 0 12 -193 11 -202 0 -4 -6 -2 -18 4 -29 8 -16 14 -132 8 -162 -1 -5 -1
-14 0 -20 6 -30 1 -208 -7 -214 -21 -15 -7 -35 27 -36 19 0 41 -4 49 -9 8 -6
12 -5 8 0 -3 6 60 9 159 9 90 0 164 -3 164 -6 0 -4 8 -9 18 -11 16 -5 18 2 19
58 1 35 -3 66 -8 70 -5 3 -9 0 -9 -6 0 -6 -4 -8 -10 -5 -5 3 -18 2 -28 -4 -11
-6 -24 -6 -35 0 -9 6 -17 6 -17 1 0 -10 -104 -7 -120 3 -5 3 -10 2 -10 -3 0
-10 -24 -9 -57 2 -24 8 -31 26 -24 69 3 24 7 28 27 24 13 -2 24 -1 24 2 0 7
80 4 131 -5 l36 -6 -3 53 c-1 30 -3 56 -4 59 -1 3 -2 9 -1 13 1 4 -9 2 -21 -5
-13 -7 -57 -13 -98 -13 -83 -1 -99 8 -92 55 4 25 7 27 43 26 21 -1 39 2 39 7
0 4 6 5 13 0 16 -10 38 -10 59 -1 9 5 19 4 22 -1 7 -10 25 -9 44 2 6 5 12 4
12 0 0 -5 10 -9 23 -10 12 0 30 -4 40 -8 17 -7 18 -3 16 42 -1 27 0 54 4 60 4
5 4 13 0 17 -9 9 -31 7 -37 -3z"/>
<path d="M1470 1207 c0 -5 -4 -5 -10 -2 -5 3 -10 2 -10 -4 0 -5 5 -13 10 -16
6 -3 10 -15 10 -26 0 -11 -4 -18 -8 -15 -5 3 -9 -2 -9 -10 0 -15 -73 -175 -84
-184 -3 -3 -9 -17 -13 -32 -3 -16 -11 -28 -16 -28 -6 0 -10 -9 -10 -19 0 -11
-7 -27 -16 -35 -8 -9 -13 -16 -9 -16 3 0 -2 -11 -11 -25 -9 -14 -20 -22 -25
-19 -5 3 -9 -2 -9 -10 0 -19 -4 -18 83 -20 43 -1 75 3 85 11 11 8 13 12 4 13
-18 0 -11 58 10 76 16 16 128 27 128 14 0 -4 13 -5 28 -2 37 5 55 -18 57 -71
l1 -42 82 0 c45 0 82 4 82 9 0 5 6 4 13 -1 10 -7 50 -9 146 -4 18 1 22 5 16
19 -5 9 -9 49 -10 88 l-3 71 50 0 c33 1 51 -4 55 -13 3 -8 9 -12 13 -9 5 3 11
-3 15 -14 3 -10 17 -31 30 -47 14 -16 25 -33 26 -39 1 -22 8 -47 13 -52 3 -3
40 -6 83 -7 70 -1 78 1 81 19 3 11 1 17 -3 13 -12 -11 -95 87 -95 112 0 5 -4
10 -9 10 -5 0 -11 7 -15 15 -3 10 8 23 34 40 21 14 45 35 52 47 15 28 20 108
6 108 -5 0 -6 5 -3 10 3 6 1 10 -5 10 -7 0 -10 6 -7 13 5 15 -31 47 -54 47
-10 0 -21 5 -24 11 -4 6 -13 8 -20 5 -7 -2 -16 -2 -19 1 -3 3 -67 5 -143 5
-216 -1 -194 3 -187 -34 10 -48 11 -371 1 -385 -5 -7 -6 -17 -3 -22 4 -5 1
-13 -5 -17 -8 -5 -9 -3 -4 6 5 8 4 11 -3 6 -13 -8 -65 42 -57 55 4 5 1 9 -4 9
-6 0 -11 6 -11 13 0 7 -6 19 -12 26 -7 6 -13 15 -13 19 -1 4 -6 17 -13 28 -6
12 -8 24 -5 28 3 3 1 6 -5 6 -7 0 -12 7 -12 15 0 8 -5 15 -11 15 -5 0 -7 5 -4
10 3 6 -1 17 -9 26 -9 8 -16 22 -16 30 0 8 -5 14 -11 14 -5 0 -7 5 -4 11 4 5
-1 19 -11 30 -9 10 -14 19 -10 19 3 0 -1 11 -10 25 -10 15 -12 25 -5 25 6 0
11 9 11 20 0 15 -7 20 -27 21 -16 0 -52 1 -81 2 -28 1 -52 -2 -52 -6z m666
-92 c51 -3 69 -15 69 -48 0 -33 -13 -42 -64 -42 -25 0 -54 -3 -63 -7 -9 -5
-20 -3 -23 3 -4 6 -14 8 -22 4 -26 -9 -52 4 -48 25 2 11 -1 20 -6 20 -6 0 -7
6 -2 13 4 6 8 16 8 22 0 5 17 10 38 11 22 1 41 5 44 8 3 3 10 3 15 0 5 -3 30
-7 54 -9z m-570 -103 c7 -7 10 -20 7 -29 -4 -10 -2 -14 4 -10 5 3 10 0 10 -8
0 -8 -13 -19 -29 -24 -16 -6 -28 -6 -28 -1 0 5 -9 7 -19 5 -17 -3 -19 0 -12
18 5 12 10 27 11 32 2 6 10 21 18 34 11 17 17 20 21 10 2 -7 10 -19 17 -27z"/>
<path d="M2403 1207 c-2 -4 -8 -5 -13 -2 -5 3 -8 -3 -7 -14 0 -11 6 -19 11
-18 13 2 14 -34 2 -50 -5 -8 -5 -13 0 -13 10 0 11 -191 0 -208 -3 -6 -2 -13 3
-17 5 -3 7 -15 5 -28 -3 -12 -5 -35 -5 -52 0 -16 -5 -33 -12 -37 -21 -13 1
-20 68 -22 45 -2 72 2 83 12 9 7 11 11 5 7 -15 -7 -15 -11 -19 130 -2 61 -4
115 -4 120 0 16 9 147 12 174 3 23 0 24 -60 25 -35 0 -66 -2 -69 -7z"/>
<path d="M3801 1198 c-6 -10 -7 -18 -3 -18 12 0 8 -41 -6 -66 -6 -12 -8 -24
-5 -28 3 -3 1 -6 -5 -6 -10 0 -28 -40 -23 -49 2 -2 -1 -7 -6 -10 -15 -11 -43
-68 -36 -75 3 -3 2 -6 -3 -6 -5 0 -18 -22 -29 -50 -11 -27 -23 -50 -28 -50 -4
0 -6 -4 -3 -8 3 -5 -6 -20 -20 -35 -20 -22 -29 -25 -44 -17 -11 6 -20 15 -20
20 0 5 -13 23 -30 41 -16 18 -27 36 -24 41 3 4 -2 8 -11 8 -9 0 -14 4 -11 9 4
5 1 11 -6 13 -7 3 -5 9 6 19 57 46 77 69 71 79 -3 6 -1 9 5 8 14 -4 23 69 10
77 -5 3 -7 12 -4 19 6 16 -49 76 -70 76 -9 0 -16 4 -16 9 0 4 -88 9 -195 10
-131 2 -195 -1 -195 -8 0 -6 5 -11 11 -11 5 0 7 -4 4 -10 -3 -5 -2 -10 2 -10
5 0 9 -87 9 -192 -1 -146 -4 -196 -14 -207 -19 -20 -10 -24 65 -26 67 -1 106
11 83 25 -7 4 -12 38 -13 79 -2 78 0 81 63 78 35 -1 60 -16 60 -36 0 -6 5 -11
10 -11 6 0 10 -7 10 -15 0 -8 5 -15 10 -15 6 0 10 -5 10 -11 0 -6 6 -17 14
-25 8 -8 13 -25 10 -38 -3 -17 1 -25 14 -28 29 -7 320 -3 328 4 4 4 1 14 -5
22 -20 24 5 89 30 83 10 -3 19 -2 19 2 0 9 31 8 48 -3 6 -4 12 -3 12 2 0 5 15
7 33 5 53 -7 77 -13 76 -21 -1 -4 -1 -9 1 -12 8 -23 7 -60 -3 -60 -8 0 -8 -3
1 -12 6 -6 45 -12 87 -12 76 -2 110 7 90 22 -17 13 -58 75 -58 89 0 7 -4 13
-9 13 -4 0 -8 5 -8 11 0 6 -10 25 -22 42 -12 17 -16 27 -9 23 10 -6 10 -3 -1
13 -7 12 -15 21 -18 21 -3 0 -6 10 -7 22 -1 11 -6 24 -11 27 -8 6 -51 94 -53
108 0 5 -5 14 -11 21 -7 8 -7 12 1 12 7 0 11 8 9 18 -3 20 -47 33 -65 19 -7
-5 -13 -6 -13 -1 0 17 -78 10 -89 -8z m-490 -78 c13 8 19 7 19 0 0 -7 6 -8 17
-1 11 6 24 6 36 -1 15 -7 18 -7 12 2 -6 9 -2 9 14 1 11 -7 21 -9 21 -6 0 3 9
1 20 -5 15 -8 20 -19 18 -41 -3 -38 -19 -46 -89 -46 -31 0 -61 -3 -67 -7 -6
-3 -13 -2 -17 3 -3 5 -14 8 -25 6 -20 -4 -22 -1 -22 35 0 48 3 59 20 62 9 2
18 0 20 -4 2 -4 12 -3 23 2z m584 -84 c8 -7 11 -16 8 -20 -4 -3 -2 -6 4 -6 5
0 10 -6 11 -12 0 -7 3 -24 6 -36 4 -18 2 -22 -9 -18 -8 3 -15 1 -15 -4 0 -5
-12 -5 -29 0 -16 4 -33 5 -36 2 -4 -4 -4 4 0 18 4 14 12 27 16 28 5 2 9 8 9
13 0 6 -6 7 -12 4 -7 -4 -5 0 5 8 9 8 17 19 17 26 0 15 8 14 25 -3z"/>
<path d="M2567 700 c-4 -17 12 -37 49 -58 17 -10 15 -11 -13 -12 -35 0 -39 -5
-23 -30 5 -9 5 -19 -2 -27 -6 -7 -8 -13 -4 -13 4 0 0 -10 -9 -23 -8 -13 -12
-27 -8 -30 3 -4 1 -7 -6 -7 -7 0 -9 -4 -6 -10 3 -5 1 -10 -6 -10 -7 0 -9 -3
-6 -7 4 -3 -1 -15 -10 -26 -10 -10 -17 -20 -16 -21 6 -4 -11 -46 -18 -46 -5 0
-8 -3 -7 -7 1 -5 -5 -21 -12 -38 -7 -16 -13 -33 -12 -38 1 -4 -1 -7 -5 -7 -5
0 -17 -20 -28 -45 -11 -25 -25 -45 -31 -45 -19 0 -9 -33 12 -40 10 -4 30 -4
44 -1 14 4 39 6 55 6 38 0 58 16 38 30 -12 9 -12 15 1 45 l14 35 94 1 93 1 18
-35 c19 -39 22 -56 8 -48 -5 3 -11 -1 -14 -8 -6 -16 44 -33 63 -21 5 3 10 2
10 -3 0 -6 8 -8 18 -6 9 2 34 5 55 8 50 5 52 9 22 37 -13 13 -25 30 -25 37 0
6 -5 12 -10 12 -6 0 -9 3 -8 8 2 11 -14 46 -25 53 -5 4 -10 18 -10 33 -1 14
-8 26 -15 26 -7 0 -11 4 -7 9 3 5 -2 17 -11 25 -8 9 -13 16 -10 16 4 0 -6 24
-21 53 -15 28 -26 55 -25 60 1 4 -2 7 -7 7 -14 0 -19 31 -9 58 7 20 4 23 -23
29 -28 5 -29 7 -13 16 20 11 37 34 40 56 2 10 -6 11 -34 7 -55 -10 -94 -9
-101 0 -11 16 -39 12 -44 -6z m103 -259 c0 -11 4 -21 9 -23 17 -5 21 -56 6
-62 -8 -3 -17 -1 -21 5 -4 7 -10 6 -19 -1 -9 -7 -16 -6 -25 5 -11 13 -11 21 1
43 27 55 49 69 49 33z"/>
<path d="M3439 648 c-1 -2 -2 -31 -3 -65 -1 -51 2 -63 16 -66 9 -3 18 -1 20 4
4 13 87 19 113 9 20 -7 21 -16 20 -161 -1 -103 -5 -161 -13 -177 -7 -12 -8
-22 -3 -22 5 0 22 -5 38 -11 24 -9 26 -12 11 -20 -16 -9 -14 -49 2 -49 10 0 7
-26 -3 -36 -12 -12 -8 -21 11 -26 43 -11 82 90 44 118 -15 11 -13 12 15 10 35
-2 51 17 33 39 -10 12 -16 317 -6 333 7 12 120 6 145 -8 23 -12 23 -11 20 39
-2 28 -1 51 2 51 3 0 6 7 6 15 0 19 -26 28 -43 14 -7 -6 -26 -9 -41 -8 -15 2
-34 0 -41 -4 -7 -5 -12 -3 -12 4 0 9 -3 10 -10 3 -6 -6 -33 -8 -65 -4 -31 3
-57 4 -60 2 -9 -10 -160 -3 -163 7 -3 9 -30 16 -33 9z"/>
<path d="M1040 633 c-76 -11 -162 -76 -190 -143 -15 -35 -22 -160 -9 -160 4 0
10 -16 13 -35 4 -19 11 -35 16 -35 6 0 10 -7 10 -15 0 -8 7 -15 15 -15 8 0 15
-4 15 -8 0 -12 70 -49 105 -57 53 -12 195 -6 195 7 0 5 3 7 8 6 4 -1 29 8 56
20 27 12 57 22 67 22 19 0 19 1 0 37 -11 21 -29 49 -42 62 l-23 24 -9 -22
c-34 -74 -201 -93 -271 -29 -76 69 -48 201 49 235 39 13 129 10 148 -5 7 -6
16 -9 19 -6 3 2 19 -9 36 -26 29 -29 52 -39 52 -22 0 5 8 17 18 28 27 30 44
74 29 75 -26 1 -44 7 -96 33 -53 25 -147 38 -211 29z"/>
<path d="M1597 634 c-1 -2 -14 -4 -27 -7 -36 -5 -91 -31 -119 -56 -13 -11 -21
-21 -18 -21 3 0 -5 -12 -19 -27 -13 -14 -22 -28 -19 -31 2 -2 0 -13 -6 -24
-22 -41 -6 -171 24 -203 7 -7 19 -22 27 -34 8 -11 20 -21 27 -21 7 0 13 -4 13
-10 0 -5 7 -10 15 -10 8 0 15 -4 15 -10 0 -5 10 -10 23 -10 13 0 28 -5 35 -12
9 -9 12 -9 12 1 0 7 5 9 12 4 19 -11 82 -10 90 2 5 6 8 6 8 -2 0 -9 7 -10 26
-3 14 6 30 8 35 4 5 -3 9 -1 9 5 0 5 16 15 34 22 19 7 33 16 30 20 -2 4 4 10
14 13 17 6 39 38 40 60 0 5 5 12 12 16 6 4 13 26 15 49 1 23 5 45 8 48 3 3 2
16 -4 29 -5 14 -8 28 -7 32 7 34 -96 152 -133 152 -10 0 -19 4 -19 8 0 4 -17
9 -37 11 -64 6 -113 8 -116 5z m88 -100 c16 -3 81 -33 72 -34 -5 0 -1 -7 7
-16 9 -8 14 -20 11 -25 -4 -5 -1 -9 4 -9 6 0 11 -20 11 -46 0 -123 -113 -189
-222 -131 -21 11 -40 29 -44 39 -3 10 -9 18 -13 18 -4 0 -7 18 -7 41 1 22 -2
43 -6 45 -15 10 50 104 73 104 5 0 8 4 5 8 -3 5 8 8 24 7 16 -1 35 2 42 6 6 4
17 5 23 1 5 -3 15 -7 20 -8z"/>
<path d="M2075 626 c-16 -6 -32 -13 -35 -16 -3 -3 -13 -10 -24 -15 -10 -6 -18
-15 -18 -20 0 -6 -6 -14 -14 -18 -8 -5 -12 -12 -9 -18 4 -5 2 -9 -2 -9 -5 0
-9 -22 -9 -50 1 -27 4 -50 9 -50 4 0 7 -6 7 -13 0 -15 35 -47 53 -47 7 0 18
-5 25 -12 7 -7 12 -8 12 -3 0 6 5 3 10 -5 5 -8 10 -10 10 -4 0 12 57 6 66 -7
3 -5 14 -5 25 1 13 8 19 7 19 0 0 -6 4 -9 8 -6 5 3 21 2 37 -2 19 -6 29 -15
30 -30 1 -12 -4 -22 -11 -22 -7 0 -14 -5 -16 -12 -4 -12 -138 -21 -138 -8 0 4
-13 10 -29 13 -32 7 -64 34 -56 48 4 5 -6 8 -20 7 -16 -2 -24 -7 -21 -15 3 -7
-2 -19 -10 -28 -9 -8 -13 -15 -9 -15 3 0 -1 -12 -9 -28 -12 -23 -12 -29 0 -40
8 -7 14 -8 14 -3 0 5 12 3 28 -5 15 -8 44 -17 65 -20 20 -4 37 -9 37 -13 0 -6
142 -7 148 -1 1 1 6 3 11 4 5 0 12 4 16 8 4 4 12 5 18 2 7 -2 29 12 50 31 33
30 39 43 44 88 4 45 1 58 -23 94 -15 23 -30 41 -33 41 -12 -2 -61 14 -61 21 0
3 -18 5 -40 5 -22 -1 -40 1 -40 5 0 3 -16 6 -35 5 -72 -4 -100 21 -65 56 14
14 30 18 57 16 21 -2 44 1 51 7 8 6 12 6 12 -2 0 -6 8 -11 18 -11 24 0 84 -38
77 -49 -3 -5 0 -11 7 -13 15 -5 48 27 48 47 0 8 5 15 11 15 5 0 8 4 4 9 -3 5
2 17 11 25 9 9 11 16 4 16 -6 0 -9 4 -6 8 3 4 -8 7 -25 6 -16 -1 -29 2 -29 7
0 6 -6 9 -12 8 -7 -1 -26 3 -43 10 -38 16 -161 20 -200 7z"/>
<path d="M3277 626 c-4 -10 -3 -24 3 -31 13 -16 12 -257 -2 -296 -10 -30 -32
-40 -93 -43 -48 -3 -108 11 -100 24 3 4 0 10 -5 12 -6 2 -13 16 -16 32 -3 16
-7 32 -9 36 -2 3 0 12 5 20 4 7 4 24 -1 37 -6 15 -5 23 2 23 8 0 8 4 0 14 -9
10 -9 16 -1 21 8 5 8 11 1 19 -6 7 -8 16 -5 19 3 3 6 22 6 42 0 19 6 42 14 50
19 19 11 21 -78 24 -75 2 -76 2 -71 -21 3 -13 10 -28 15 -35 5 -7 5 -14 -2
-18 -6 -3 -7 -12 -3 -18 11 -17 11 -30 -1 -45 -7 -9 -6 -16 3 -21 16 -11 17
-12 2 -38 -6 -13 -8 -23 -4 -23 4 0 8 -26 7 -57 0 -32 2 -70 5 -84 7 -33 41
-79 58 -79 7 0 13 -4 13 -8 0 -5 6 -9 13 -9 6 0 26 -4 42 -8 47 -11 138 -12
159 -2 12 6 16 6 12 -2 -7 -11 60 9 100 30 11 6 30 29 40 52 17 36 20 64 19
192 -1 114 3 153 13 164 20 21 -1 29 -70 28 -32 -1 -59 2 -61 7 -2 6 -6 2 -10
-8z"/>
<path d="M3920 620 c0 -5 4 -11 9 -14 12 -7 13 -406 1 -406 -4 0 -7 -8 -5 -17
2 -10 4 -21 4 -25 1 -4 11 -4 24 0 25 9 59 8 75 -2 6 -3 14 -2 17 4 5 8 11 8
20 0 17 -14 28 13 12 29 -15 15 -19 390 -5 408 5 7 7 16 4 22 -7 11 -156 12
-156 1z"/>
</g>
</svg>
